<svg width="17" height="17" viewBox="0 0 17 17" fill="none" xmlns="http://www.w3.org/2000/svg">
<mask id="mask0" style="mask-type:alpha" maskUnits="userSpaceOnUse" x="0" y="0" width="17" height="17">
<path d="M0 0.00537109H16.9946V16.998H0V0.00537109Z" fill="white"/>
</mask>
<g mask="url(#mask0)">
<path fill-rule="evenodd" clip-rule="evenodd" d="M8.49733 0.00537109C6.18959 0.00537109 5.90021 0.0151528 4.99388 0.056506C4.08944 0.097758 3.47174 0.241415 2.93125 0.451486C2.37248 0.668607 1.8986 0.959159 1.42618 1.43155C0.953788 1.90397 0.663236 2.37785 0.446115 2.93662C0.236044 3.47711 0.0923869 4.09482 0.0511349 4.99926C0.00978175 5.90559 0 6.19496 0 8.50271C0 10.8104 0.00978175 11.0998 0.0511349 12.0061C0.0923869 12.9106 0.236044 13.5283 0.446115 14.0688C0.663236 14.6275 0.953788 15.1014 1.42618 15.5738C1.8986 16.0462 2.37248 16.3368 2.93125 16.5539C3.47174 16.764 4.08944 16.9076 4.99388 16.9489C5.90021 16.9902 6.18959 17 8.49733 17C10.8051 17 11.0944 16.9902 12.0008 16.9489C12.9052 16.9076 13.5229 16.764 14.0634 16.5539C14.6222 16.3368 15.096 16.0462 15.5685 15.5738C16.0408 15.1014 16.3314 14.6275 16.5486 14.0688C16.7586 13.5283 16.9022 12.9106 16.9435 12.0061C16.9849 11.0998 16.9946 10.8104 16.9946 8.50271C16.9946 6.19496 16.9849 5.90559 16.9435 4.99926C16.9022 4.09482 16.7586 3.47711 16.5486 2.93662C16.3314 2.37785 16.0408 1.90397 15.5685 1.43155C15.096 0.959159 14.6222 0.668607 14.0634 0.451486C13.5229 0.241415 12.9052 0.097758 12.0008 0.056506C11.0944 0.0151528 10.8051 0.00537109 8.49733 0.00537109ZM8.49733 1.53642C10.7662 1.53642 11.035 1.54509 11.931 1.58597C12.7594 1.62374 13.2094 1.76217 13.5088 1.87854C13.9054 2.03269 14.1885 2.21682 14.4858 2.51419C14.7832 2.81152 14.9673 3.09458 15.1215 3.49121C15.2378 3.79064 15.3763 4.24056 15.414 5.06904C15.4549 5.96505 15.4636 6.23381 15.4636 8.50271C15.4636 10.7716 15.4549 11.0403 15.414 11.9363C15.3763 12.7648 15.2378 13.2147 15.1215 13.5142C14.9673 13.9108 14.7832 14.1939 14.4858 14.4912C14.1885 14.7886 13.9054 14.9727 13.5088 15.1268C13.2094 15.2432 12.7594 15.3816 11.931 15.4194C11.0351 15.4603 10.7664 15.469 8.49733 15.469C6.22827 15.469 5.95958 15.4603 5.06367 15.4194C4.23519 15.3816 3.78527 15.2432 3.48584 15.1268C3.08921 14.9727 2.80615 14.7886 2.50882 14.4912C2.21148 14.1939 2.02732 13.9108 1.87317 13.5142C1.7568 13.2147 1.61837 12.7648 1.5806 11.9363C1.53971 11.0403 1.53105 10.7716 1.53105 8.50271C1.53105 6.23381 1.53971 5.96505 1.5806 5.06904C1.61837 4.24056 1.7568 3.79064 1.87317 3.49121C2.02732 3.09458 2.21145 2.81152 2.50882 2.51419C2.80615 2.21682 3.08921 2.03269 3.48584 1.87854C3.78527 1.76217 4.23519 1.62374 5.06367 1.58597C5.95968 1.54509 6.22844 1.53642 8.49733 1.53642Z" fill="white"/>
</g>
<path fill-rule="evenodd" clip-rule="evenodd" d="M8.49734 11.3351C6.933 11.3351 5.66488 10.067 5.66488 8.50269C5.66488 6.93836 6.933 5.67024 8.49734 5.67024C10.0616 5.67024 11.3298 6.93836 11.3298 8.50269C11.3298 10.067 10.0616 11.3351 8.49734 11.3351ZM8.49734 4.13919C6.08742 4.13919 4.13383 6.09277 4.13383 8.50269C4.13383 10.9126 6.08742 12.8662 8.49734 12.8662C10.9072 12.8662 12.8608 10.9126 12.8608 8.50269C12.8608 6.09277 10.9072 4.13919 8.49734 4.13919Z" fill="white"/>
<path fill-rule="evenodd" clip-rule="evenodd" d="M14.0529 3.96681C14.0529 4.52997 13.5964 4.98647 13.0332 4.98647C12.4701 4.98647 12.0135 4.52997 12.0135 3.96681C12.0135 3.40365 12.4701 2.94711 13.0332 2.94711C13.5964 2.94711 14.0529 3.40365 14.0529 3.96681Z" fill="white"/>
</svg>
